{
	"asset":{
		"generator":"Khronos glTF Blender I/O v4.3.47",
		"version":"2.0"
	},
	"scene":0,
	"scenes":[
		{
			"name":"Scene",
			"nodes":[
				9,
				10,
				11
			]
		}
	],
	"nodes":[
		{
			"mesh":0,
			"name":"L1"
		},
		{
			"mesh":1,
			"name":"L2"
		},
		{
			"mesh":2,
			"name":"L3"
		},
		{
			"mesh":3,
			"name":"L4"
		},
		{
			"mesh":4,
			"name":"L5"
		},
		{
			"mesh":5,
			"name":"RING"
		},
		{
			"mesh":6,
			"name":"SUN"
		},
		{
			"mesh":7,
			"name":"W1"
		},
		{
			"mesh":8,
			"name":"W2"
		},
		{
			"children":[
				0,
				1,
				2,
				3,
				4,
				5,
				6,
				7,
				8
			],
			"name":"BASE"
		},
		{
			"camera":0,
			"name":"Camera",
			"rotation":[
				-0.1822354793548584,
				0,
				0,
				0.9832550287246704
			],
			"translation":[
				0,
				5,
				10
			]
		},
		{
			"name":"SUNMOVE"
		}
	],
	"cameras":[
		{
			"name":"Camera",
			"perspective":{
				"aspectRatio":1.7777777777777777,
				"yfov":0.39959652046304894,
				"zfar":1000,
				"znear":0.10000000149011612
			},
			"type":"perspective"
		}
	],
	"animations":[
		{
			"channels":[
				{
					"sampler":0,
					"target":{
						"node":6,
						"path":"translation"
					}
				}
			],
			"name":"SUN",
			"samplers":[
				{
					"input":36,
					"interpolation":"LINEAR",
					"output":37
				}
			]
		},
		{
			"channels":[
				{
					"sampler":0,
					"target":{
						"node":10,
						"path":"translation"
					}
				},
				{
					"sampler":1,
					"target":{
						"node":10,
						"path":"rotation"
					}
				},
				{
					"sampler":2,
					"target":{
						"node":10,
						"path":"scale"
					}
				}
			],
			"name":"CameraAction",
			"samplers":[
				{
					"input":38,
					"interpolation":"LINEAR",
					"output":39
				},
				{
					"input":38,
					"interpolation":"LINEAR",
					"output":40
				},
				{
					"input":41,
					"interpolation":"STEP",
					"output":42
				}
			]
		},
		{
			"channels":[
				{
					"sampler":0,
					"target":{
						"node":11,
						"path":"translation"
					}
				},
				{
					"sampler":1,
					"target":{
						"node":11,
						"path":"rotation"
					}
				},
				{
					"sampler":2,
					"target":{
						"node":11,
						"path":"scale"
					}
				}
			],
			"name":"Action",
			"samplers":[
				{
					"input":36,
					"interpolation":"LINEAR",
					"output":43
				},
				{
					"input":44,
					"interpolation":"STEP",
					"output":45
				},
				{
					"input":44,
					"interpolation":"STEP",
					"output":46
				}
			]
		}
	],
	"meshes":[
		{
			"name":"L1",
			"primitives":[
				{
					"attributes":{
						"POSITION":0,
						"NORMAL":1,
						"TEXCOORD_0":2
					},
					"indices":3
				}
			]
		},
		{
			"name":"L2",
			"primitives":[
				{
					"attributes":{
						"POSITION":4,
						"NORMAL":5,
						"TEXCOORD_0":6
					},
					"indices":7
				}
			]
		},
		{
			"name":"L3",
			"primitives":[
				{
					"attributes":{
						"POSITION":8,
						"NORMAL":9,
						"TEXCOORD_0":10
					},
					"indices":11
				}
			]
		},
		{
			"name":"L4",
			"primitives":[
				{
					"attributes":{
						"POSITION":12,
						"NORMAL":13,
						"TEXCOORD_0":14
					},
					"indices":15
				}
			]
		},
		{
			"name":"L5",
			"primitives":[
				{
					"attributes":{
						"POSITION":16,
						"NORMAL":17,
						"TEXCOORD_0":18
					},
					"indices":19
				}
			]
		},
		{
			"name":"RING",
			"primitives":[
				{
					"attributes":{
						"POSITION":20,
						"NORMAL":21,
						"TEXCOORD_0":22
					},
					"indices":23
				}
			]
		},
		{
			"name":"SUN",
			"primitives":[
				{
					"attributes":{
						"POSITION":24,
						"NORMAL":25,
						"TEXCOORD_0":26
					},
					"indices":27
				}
			]
		},
		{
			"name":"W1",
			"primitives":[
				{
					"attributes":{
						"POSITION":28,
						"NORMAL":29,
						"TEXCOORD_0":30
					},
					"indices":31
				}
			]
		},
		{
			"name":"W2",
			"primitives":[
				{
					"attributes":{
						"POSITION":32,
						"NORMAL":33,
						"TEXCOORD_0":34
					},
					"indices":35
				}
			]
		}
	],
	"accessors":[
		{
			"bufferView":0,
			"componentType":5126,
			"count":26402,
			"max":[
				-1.2508528232574463,
				0.03750004991889,
				0.1491471379995346
			],
			"min":[
				-2.049147844314575,
				-0.03750004991889,
				-0.1491474211215973
			],
			"type":"VEC3"
		},
		{
			"bufferView":1,
			"componentType":5126,
			"count":26402,
			"type":"VEC3"
		},
		{
			"bufferView":2,
			"componentType":5126,
			"count":26402,
			"type":"VEC2"
		},
		{
			"bufferView":3,
			"componentType":5123,
			"count":42240,
			"type":"SCALAR"
		},
		{
			"bufferView":4,
			"componentType":5126,
			"count":26402,
			"max":[
				-0.9874119162559509,
				0.03750004991889,
				-0.6266041994094849
			],
			"min":[
				-1.732204556465149,
				-0.03750004991889,
				-1.2425367832183838
			],
			"type":"VEC3"
		},
		{
			"bufferView":5,
			"componentType":5126,
			"count":26402,
			"type":"VEC3"
		},
		{
			"bufferView":6,
			"componentType":5126,
			"count":26402,
			"type":"VEC2"
		},
		{
			"bufferView":7,
			"componentType":5123,
			"count":42240,
			"type":"SCALAR"
		},
		{
			"bufferView":8,
			"componentType":5126,
			"count":26402,
			"max":[
				-0.98741215467453,
				0.03750004991889,
				1.2425366640090942
			],
			"min":[
				-1.732204556465149,
				-0.03750004991889,
				0.6266040802001953
			],
			"type":"VEC3"
		},
		{
			"bufferView":9,
			"componentType":5126,
			"count":26402,
			"type":"VEC3"
		},
		{
			"bufferView":10,
			"componentType":5126,
			"count":26402,
			"type":"VEC2"
		},
		{
			"bufferView":11,
			"componentType":5123,
			"count":42240,
			"type":"SCALAR"
		},
		{
			"bufferView":12,
			"componentType":5126,
			"count":26402,
			"max":[
				-0.3403855264186859,
				0.03750004991889,
				-1.145605444908142
			],
			"min":[
				-0.8422285914421082,
				-0.03750004991889,
				-1.9352103471755981
			],
			"type":"VEC3"
		},
		{
			"bufferView":13,
			"componentType":5126,
			"count":26402,
			"type":"VEC3"
		},
		{
			"bufferView":14,
			"componentType":5126,
			"count":26402,
			"type":"VEC2"
		},
		{
			"bufferView":15,
			"componentType":5123,
			"count":42240,
			"type":"SCALAR"
		},
		{
			"bufferView":16,
			"componentType":5126,
			"count":26402,
			"max":[
				-0.34038564562797546,
				0.03750004991889,
				1.9352103471755981
			],
			"min":[
				-0.8422288298606873,
				-0.03750004991889,
				1.1456053256988525
			],
			"type":"VEC3"
		},
		{
			"bufferView":17,
			"componentType":5126,
			"count":26402,
			"type":"VEC3"
		},
		{
			"bufferView":18,
			"componentType":5126,
			"count":26402,
			"type":"VEC2"
		},
		{
			"bufferView":19,
			"componentType":5123,
			"count":42240,
			"type":"SCALAR"
		},
		{
			"bufferView":20,
			"componentType":5126,
			"count":147456,
			"max":[
				0.9910610318183899,
				0.05953637883067131,
				0.9910609126091003
			],
			"min":[
				-0.9910609722137451,
				-0.05953637883067131,
				-0.9910610318183899
			],
			"type":"VEC3"
		},
		{
			"bufferView":21,
			"componentType":5126,
			"count":147456,
			"type":"VEC3"
		},
		{
			"bufferView":22,
			"componentType":5126,
			"count":147456,
			"type":"VEC2"
		},
		{
			"bufferView":23,
			"componentType":5125,
			"count":221184,
			"type":"SCALAR"
		},
		{
			"bufferView":24,
			"componentType":5126,
			"count":126976,
			"max":[
				0.49321848154067993,
				0.4983861744403839,
				0.4932183623313904
			],
			"min":[
				-0.4932182729244232,
				-0.4983861744403839,
				-0.4932185411453247
			],
			"type":"VEC3"
		},
		{
			"bufferView":25,
			"componentType":5126,
			"count":126976,
			"type":"VEC3"
		},
		{
			"bufferView":26,
			"componentType":5126,
			"count":126976,
			"type":"VEC2"
		},
		{
			"bufferView":27,
			"componentType":5125,
			"count":190464,
			"type":"SCALAR"
		},
		{
			"bufferView":28,
			"componentType":5126,
			"count":72388,
			"max":[
				1.5248115062713623,
				0.037500012665987015,
				1.3760409355163574
			],
			"min":[
				0.5195800065994263,
				-0.03750001639127731,
				-1.3760406970977783
			],
			"type":"VEC3"
		},
		{
			"bufferView":29,
			"componentType":5126,
			"count":72388,
			"type":"VEC3"
		},
		{
			"bufferView":30,
			"componentType":5126,
			"count":72388,
			"type":"VEC2"
		},
		{
			"bufferView":31,
			"componentType":5125,
			"count":120576,
			"type":"SCALAR"
		},
		{
			"bufferView":32,
			"componentType":5126,
			"count":72406,
			"max":[
				2.02329683303833,
				0.03750001639127731,
				1.8379790782928467
			],
			"min":[
				0.7109218835830688,
				-0.03750001639127731,
				-1.8379791975021362
			],
			"type":"VEC3"
		},
		{
			"bufferView":33,
			"componentType":5126,
			"count":72406,
			"type":"VEC3"
		},
		{
			"bufferView":34,
			"componentType":5126,
			"count":72406,
			"type":"VEC2"
		},
		{
			"bufferView":35,
			"componentType":5125,
			"count":120576,
			"type":"SCALAR"
		},
		{
			"bufferView":36,
			"componentType":5126,
			"count":60,
			"max":[
				1
			],
			"min":[
				0.016666666666666666
			],
			"type":"SCALAR"
		},
		{
			"bufferView":37,
			"componentType":5126,
			"count":60,
			"type":"VEC3"
		},
		{
			"bufferView":38,
			"componentType":5126,
			"count":61,
			"max":[
				1
			],
			"min":[
				0
			],
			"type":"SCALAR"
		},
		{
			"bufferView":39,
			"componentType":5126,
			"count":61,
			"type":"VEC3"
		},
		{
			"bufferView":40,
			"componentType":5126,
			"count":61,
			"type":"VEC4"
		},
		{
			"bufferView":41,
			"componentType":5126,
			"count":2,
			"max":[
				1
			],
			"min":[
				0
			],
			"type":"SCALAR"
		},
		{
			"bufferView":42,
			"componentType":5126,
			"count":2,
			"type":"VEC3"
		},
		{
			"bufferView":43,
			"componentType":5126,
			"count":60,
			"type":"VEC3"
		},
		{
			"bufferView":44,
			"componentType":5126,
			"count":2,
			"max":[
				1
			],
			"min":[
				0.016666666666666666
			],
			"type":"SCALAR"
		},
		{
			"bufferView":45,
			"componentType":5126,
			"count":2,
			"type":"VEC4"
		},
		{
			"bufferView":46,
			"componentType":5126,
			"count":2,
			"type":"VEC3"
		}
	],
	"bufferViews":[
		{
			"buffer":0,
			"byteLength":316824,
			"byteOffset":0,
			"target":34962
		},
		{
			"buffer":0,
			"byteLength":316824,
			"byteOffset":316824,
			"target":34962
		},
		{
			"buffer":0,
			"byteLength":211216,
			"byteOffset":633648,
			"target":34962
		},
		{
			"buffer":0,
			"byteLength":84480,
			"byteOffset":844864,
			"target":34963
		},
		{
			"buffer":0,
			"byteLength":316824,
			"byteOffset":929344,
			"target":34962
		},
		{
			"buffer":0,
			"byteLength":316824,
			"byteOffset":1246168,
			"target":34962
		},
		{
			"buffer":0,
			"byteLength":211216,
			"byteOffset":1562992,
			"target":34962
		},
		{
			"buffer":0,
			"byteLength":84480,
			"byteOffset":1774208,
			"target":34963
		},
		{
			"buffer":0,
			"byteLength":316824,
			"byteOffset":1858688,
			"target":34962
		},
		{
			"buffer":0,
			"byteLength":316824,
			"byteOffset":2175512,
			"target":34962
		},
		{
			"buffer":0,
			"byteLength":211216,
			"byteOffset":2492336,
			"target":34962
		},
		{
			"buffer":0,
			"byteLength":84480,
			"byteOffset":2703552,
			"target":34963
		},
		{
			"buffer":0,
			"byteLength":316824,
			"byteOffset":2788032,
			"target":34962
		},
		{
			"buffer":0,
			"byteLength":316824,
			"byteOffset":3104856,
			"target":34962
		},
		{
			"buffer":0,
			"byteLength":211216,
			"byteOffset":3421680,
			"target":34962
		},
		{
			"buffer":0,
			"byteLength":84480,
			"byteOffset":3632896,
			"target":34963
		},
		{
			"buffer":0,
			"byteLength":316824,
			"byteOffset":3717376,
			"target":34962
		},
		{
			"buffer":0,
			"byteLength":316824,
			"byteOffset":4034200,
			"target":34962
		},
		{
			"buffer":0,
			"byteLength":211216,
			"byteOffset":4351024,
			"target":34962
		},
		{
			"buffer":0,
			"byteLength":84480,
			"byteOffset":4562240,
			"target":34963
		},
		{
			"buffer":0,
			"byteLength":1769472,
			"byteOffset":4646720,
			"target":34962
		},
		{
			"buffer":0,
			"byteLength":1769472,
			"byteOffset":6416192,
			"target":34962
		},
		{
			"buffer":0,
			"byteLength":1179648,
			"byteOffset":8185664,
			"target":34962
		},
		{
			"buffer":0,
			"byteLength":884736,
			"byteOffset":9365312,
			"target":34963
		},
		{
			"buffer":0,
			"byteLength":1523712,
			"byteOffset":10250048,
			"target":34962
		},
		{
			"buffer":0,
			"byteLength":1523712,
			"byteOffset":11773760,
			"target":34962
		},
		{
			"buffer":0,
			"byteLength":1015808,
			"byteOffset":13297472,
			"target":34962
		},
		{
			"buffer":0,
			"byteLength":761856,
			"byteOffset":14313280,
			"target":34963
		},
		{
			"buffer":0,
			"byteLength":868656,
			"byteOffset":15075136,
			"target":34962
		},
		{
			"buffer":0,
			"byteLength":868656,
			"byteOffset":15943792,
			"target":34962
		},
		{
			"buffer":0,
			"byteLength":579104,
			"byteOffset":16812448,
			"target":34962
		},
		{
			"buffer":0,
			"byteLength":482304,
			"byteOffset":17391552,
			"target":34963
		},
		{
			"buffer":0,
			"byteLength":868872,
			"byteOffset":17873856,
			"target":34962
		},
		{
			"buffer":0,
			"byteLength":868872,
			"byteOffset":18742728,
			"target":34962
		},
		{
			"buffer":0,
			"byteLength":579248,
			"byteOffset":19611600,
			"target":34962
		},
		{
			"buffer":0,
			"byteLength":482304,
			"byteOffset":20190848,
			"target":34963
		},
		{
			"buffer":0,
			"byteLength":240,
			"byteOffset":20673152
		},
		{
			"buffer":0,
			"byteLength":720,
			"byteOffset":20673392
		},
		{
			"buffer":0,
			"byteLength":244,
			"byteOffset":20674112
		},
		{
			"buffer":0,
			"byteLength":732,
			"byteOffset":20674356
		},
		{
			"buffer":0,
			"byteLength":976,
			"byteOffset":20675088
		},
		{
			"buffer":0,
			"byteLength":8,
			"byteOffset":20676064
		},
		{
			"buffer":0,
			"byteLength":24,
			"byteOffset":20676072
		},
		{
			"buffer":0,
			"byteLength":720,
			"byteOffset":20676096
		},
		{
			"buffer":0,
			"byteLength":8,
			"byteOffset":20676816
		},
		{
			"buffer":0,
			"byteLength":32,
			"byteOffset":20676824
		},
		{
			"buffer":0,
			"byteLength":24,
			"byteOffset":20676856
		}
	],
	"buffers":[
		{
			"byteLength":20676880,
			"uri":"sunet-ani.bin"
		}
	]
}
