<?xml version="1.0" encoding="utf-8"?>
<!-- Generator: Adobe Illustrator 25.2.0, SVG Export Plug-In . SVG Version: 6.00 Build 0)  -->
<svg version="1.1" id="Layer_1" xmlns="http://www.w3.org/2000/svg" xmlns:xlink="http://www.w3.org/1999/xlink" x="0px" y="0px"
	 viewBox="0 0 34.8 55.3" style="enable-background:new 0 0 34.8 55.3;" xml:space="preserve">
<style type="text/css">
	.st0{fill:url(#SVGID_1_);}
	.st1{fill:#FFFFFF;}
</style>
<linearGradient id="SVGID_1_" gradientUnits="userSpaceOnUse" x1="17.4806" y1="21.025" x2="17.4806" y2="54.985">
	<stop  offset="0" style="stop-color:#000000;stop-opacity:0.1"/>
	<stop  offset="1" style="stop-color:#000000;stop-opacity:0.5"/>
</linearGradient>
<polygon class="st0" points="34.5,0.9 34.5,40.7 17.4,54.9 17.4,55 17.4,55 17.4,55 17.4,54.9 0.5,40.7 0.5,0.9 17.4,15.1 "/>
<g>
	<path class="st1" d="M34.5,0.9l0.4,39.8l0,0.2l-0.1,0.1l-17,14.4l0.2-0.3l0,0.1H17l0,0h0.9l0,0H17l0-0.1l0.2,0.3L0.2,41L0,40.9
		l0-0.2L0.1,0.9l0-0.9l0.7,0.6l16.8,14.4l-0.3,0C23.1,10.2,28.8,5.5,34.5,0.9z M34.5,0.9c-5.7,4.8-11.3,9.7-16.9,14.5l-0.2,0.1
		l-0.2-0.1L0.2,1.2l0.7-0.3L1,40.7l-0.2-0.4l16.9,14.3l0.2,0.1l0,0.2l0,0.1H17l0,0h0.9l0,0H17l0-0.1l0-0.2l0.2-0.1l17.1-14.2
		l-0.1,0.3L34.5,0.9z"/>
</g>
</svg>
