<svg id="Layer_1" data-name="Layer 1" xmlns="http://www.w3.org/2000/svg" viewBox="0 0 141.73 141.73"><defs><style>.cls-1{fill:#f69320;}</style></defs><path class="cls-1" d="M70.87,49.52A21.35,21.35,0,1,0,92.21,70.86,21.31,21.31,0,0,0,70.87,49.52Zm0,35.57A14.23,14.23,0,1,1,85.09,70.86,14.27,14.27,0,0,1,70.87,85.09ZM120.46,0H21.26A21.26,21.26,0,0,0,0,21.27v99.21a21.25,21.25,0,0,0,21.26,21.25h99.2a21.26,21.26,0,0,0,21.27-21.25V21.27A21.27,21.27,0,0,0,120.46,0ZM49,17.5l2.71-1a2.84,2.84,0,0,1,3.7,1.7l6.11,15.94a2.84,2.84,0,0,1-1.7,3.7l-2.71,1a2.84,2.84,0,0,1-3.7-1.71L47.24,21.2A2.85,2.85,0,0,1,49,17.5ZM22.63,39.42l1.56-2.28a2.92,2.92,0,0,1,4-.71L42.26,46.1a2.93,2.93,0,0,1,.72,4l-1.57,2.27a2.93,2.93,0,0,1-4,.72L23.34,43.4A2.91,2.91,0,0,1,22.63,39.42ZM16.08,75.13a2.85,2.85,0,0,1-2.84-2.84V69.44a2.86,2.86,0,0,1,2.84-2.85H33.16A2.86,2.86,0,0,1,36,69.44v2.85a2.85,2.85,0,0,1-2.84,2.84ZM42.26,95.76l-14.08,9.68a2.84,2.84,0,0,1-4-.85l-1.56-2.28a2.91,2.91,0,0,1,.71-4l14.09-9.68a2.92,2.92,0,0,1,4,.71L43,91.64A3.09,3.09,0,0,1,42.26,95.76Zm19.07,11.81-6.12,15.94a3.1,3.1,0,0,1-3.7,1.71l-2.7-1a3.11,3.11,0,0,1-1.71-3.7l6.26-15.93a3.09,3.09,0,0,1,3.7-1.71l2.71,1A2.89,2.89,0,0,1,61.33,107.57ZM42.41,70.86A28.46,28.46,0,1,1,70.87,99.32,28.54,28.54,0,0,1,42.41,70.86Zm46.67,39.42a3.11,3.11,0,0,1-3.7-1.71l-1-2.7a2.84,2.84,0,0,1,1.43-3.56,34.44,34.44,0,0,0,16.64-16.65A34.88,34.88,0,0,0,85.81,39.27a2.78,2.78,0,0,1-1.43-3.55l1-2.71v-.14a2.85,2.85,0,0,1,3.84-1.28,43.35,43.35,0,0,1,0,78.55A.14.14,0,0,1,89.08,110.28Zm5.41,13.23c-.15.14-.15.14-.29.14a2.9,2.9,0,0,1-3.7-1.7l-1-2.71a2.89,2.89,0,0,1,1.42-3.55,49.11,49.11,0,0,0,0-89.65,2.78,2.78,0,0,1-1.42-3.56l1-2.7V19.5a2.85,2.85,0,0,1,3.84-1.29,59.17,59.17,0,0,1,29.32,29.17A57.73,57.73,0,0,1,94.49,123.51Z"/></svg>