<?xml version="1.0" encoding="utf-8"?>
<!-- Generator: Adobe Illustrator 25.2.0, SVG Export Plug-In . SVG Version: 6.00 Build 0)  -->
<svg version="1.1" id="Layer_1" xmlns="http://www.w3.org/2000/svg" xmlns:xlink="http://www.w3.org/1999/xlink" x="0px" y="0px"
	 viewBox="0 0 142.7 142.7" style="enable-background:new 0 0 142.7 142.7;" xml:space="preserve">
<style type="text/css">
	.st0{opacity:0.5;fill:none;stroke:#000000;stroke-miterlimit:10;}
	.st1{opacity:0.5;fill:url(#SVGID_1_);enable-background:new    ;}
	.st2{fill:url(#SVGID_2_);}
</style>
<path class="st0" d="M71.4,50C59.6,50,50,59.6,50,71.4s9.5,21.4,21.3,21.4s21.4-9.5,21.4-21.3l0,0C92.7,59.6,83.2,50,71.4,50
	L71.4,50z M71.4,85.6c-7.9,0-14.2-6.4-14.2-14.2c0-7.9,6.4-14.2,14.2-14.2c7.9,0,14.2,6.4,14.2,14.2l0,0
	C85.6,79.2,79.2,85.6,71.4,85.6z M121,0.5H21.8C10,0.5,0.5,10,0.5,21.8l0,0V121c0,11.7,9.5,21.2,21.2,21.2l0,0H121
	c11.7,0,21.3-9.5,21.3-21.2l0,0V21.8C142.2,10,132.7,0.5,121,0.5z M49.5,18l2.7-1c1.5-0.6,3.1,0.2,3.7,1.6c0,0,0,0,0,0.1L62,34.6
	c0.6,1.5-0.2,3.1-1.6,3.7c0,0,0,0-0.1,0l-2.7,1c-1.5,0.6-3.1-0.2-3.7-1.6v-0.1l-6.2-15.9C47.2,20.2,47.9,18.6,49.5,18
	C49.4,18,49.5,18,49.5,18z M23.1,39.9l1.6-2.3c0.9-1.3,2.7-1.6,4-0.7l14.1,9.7c1.3,0.9,1.6,2.7,0.7,4l-1.6,2.3
	c-0.9,1.3-2.7,1.6-4,0.7l-14.1-9.7C22.6,43,22.3,41.2,23.1,39.9z M16.6,75.6c-1.6,0-2.8-1.3-2.8-2.8V70c0-1.6,1.3-2.8,2.8-2.8h17.1
	c1.6,0,2.8,1.3,2.8,2.8v2.8c0,1.6-1.3,2.8-2.8,2.8H16.6z M42.8,96.3L28.7,106c-1.3,0.9-3.1,0.5-3.9-0.8c0,0,0-0.1-0.1-0.1l-1.6-2.3
	c-0.9-1.3-0.6-3.1,0.7-4l14.1-9.7c1.3-0.9,3.1-0.6,4,0.7l1.6,2.3C44.4,93.5,44,95.3,42.8,96.3z M61.8,108.1L55.7,124
	c-0.6,1.4-2.2,2.1-3.7,1.7l-2.7-1c-1.4-0.6-2.1-2.2-1.7-3.7l6.3-15.9c0.6-1.4,2.2-2.1,3.7-1.7l2.7,1C61.7,105,62.4,106.6,61.8,108.1
	z M42.9,71.4c0-15.7,12.7-28.5,28.5-28.5s28.5,12.7,28.5,28.5S87.1,99.8,71.4,99.8S43,87.1,42.9,71.4z M89.6,110.8
	c-1.5,0.4-3.1-0.3-3.7-1.7l-1-2.7c-0.5-1.4,0.1-2.9,1.4-3.6c7.3-3.4,13.2-9.3,16.6-16.7c8.2-17.4,0.8-38.2-16.6-46.4
	c-1.3-0.6-2-2.2-1.4-3.5l1-2.7v-0.1c0.7-1.4,2.4-2,3.8-1.3l0,0c21.7,10.1,31.1,35.9,20.9,57.6c-4.3,9.2-11.7,16.6-20.9,20.9
	C89.7,110.7,89.7,110.8,89.6,110.8z M95,124c-0.2,0.1-0.2,0.1-0.3,0.1c-1.5,0.5-3.1-0.2-3.7-1.7l-1-2.7c-0.5-1.4,0.1-2.9,1.4-3.6
	c24.8-11.1,35.8-40.1,24.8-64.9c-4.9-11-13.7-19.8-24.8-24.8c-1.3-0.6-2-2.2-1.4-3.6l1-2.7V20c0.7-1.4,2.4-2,3.8-1.3l0,0
	c13,5.9,23.4,16.2,29.3,29.2C137.1,77,124,111,95,124z"/>
<radialGradient id="SVGID_1_" cx="71.4" cy="70.5398" r="182.4608" gradientTransform="matrix(1 0 0 -1 0 141.8898)" gradientUnits="userSpaceOnUse">
	<stop  offset="0" style="stop-color:#000000;stop-opacity:0.5"/>
	<stop  offset="1" style="stop-color:#000000;stop-opacity:0"/>
</radialGradient>
<path class="st1" d="M71.4,50C59.6,50,50,59.6,50,71.4s9.5,21.4,21.3,21.4s21.4-9.5,21.4-21.3l0,0C92.7,59.6,83.2,50,71.4,50
	L71.4,50z M71.4,85.6c-7.9,0-14.2-6.4-14.2-14.2c0-7.9,6.4-14.2,14.2-14.2c7.9,0,14.2,6.4,14.2,14.2l0,0
	C85.6,79.2,79.2,85.6,71.4,85.6z M121,0.5H21.8C10,0.5,0.5,10,0.5,21.8l0,0V121c0,11.7,9.5,21.2,21.2,21.2l0,0H121
	c11.7,0,21.3-9.5,21.3-21.2l0,0V21.8C142.2,10,132.7,0.5,121,0.5z M49.5,18l2.7-1c1.5-0.6,3.1,0.2,3.7,1.6c0,0,0,0,0,0.1L62,34.6
	c0.6,1.5-0.2,3.1-1.6,3.7c0,0,0,0-0.1,0l-2.7,1c-1.5,0.6-3.1-0.2-3.7-1.6v-0.1l-6.2-15.9C47.2,20.2,47.9,18.6,49.5,18
	C49.4,18,49.5,18,49.5,18z M23.1,39.9l1.6-2.3c0.9-1.3,2.7-1.6,4-0.7l14.1,9.7c1.3,0.9,1.6,2.7,0.7,4l-1.6,2.3
	c-0.9,1.3-2.7,1.6-4,0.7l-14.1-9.7C22.6,43,22.3,41.2,23.1,39.9z M16.6,75.6c-1.6,0-2.8-1.3-2.8-2.8V70c0-1.6,1.3-2.8,2.8-2.8h17.1
	c1.6,0,2.8,1.3,2.8,2.8v2.8c0,1.6-1.3,2.8-2.8,2.8H16.6z M42.8,96.3L28.7,106c-1.3,0.9-3.1,0.5-3.9-0.8c0,0,0-0.1-0.1-0.1l-1.6-2.3
	c-0.9-1.3-0.6-3.1,0.7-4l14.1-9.7c1.3-0.9,3.1-0.6,4,0.7l1.6,2.3C44.4,93.5,44,95.3,42.8,96.3z M61.8,108.1L55.7,124
	c-0.6,1.4-2.2,2.1-3.7,1.7l-2.7-1c-1.4-0.6-2.1-2.2-1.7-3.7l6.3-15.9c0.6-1.4,2.2-2.1,3.7-1.7l2.7,1C61.7,105,62.4,106.6,61.8,108.1
	z M42.9,71.4c0-15.7,12.7-28.5,28.5-28.5s28.5,12.7,28.5,28.5S87.1,99.8,71.4,99.8S43,87.1,42.9,71.4z M89.6,110.8
	c-1.5,0.4-3.1-0.3-3.7-1.7l-1-2.7c-0.5-1.4,0.1-2.9,1.4-3.6c7.3-3.4,13.2-9.3,16.6-16.7c8.2-17.4,0.8-38.2-16.6-46.4
	c-1.3-0.6-2-2.2-1.4-3.5l1-2.7v-0.1c0.7-1.4,2.4-2,3.8-1.3l0,0c21.7,10.1,31.1,35.9,20.9,57.6c-4.3,9.2-11.7,16.6-20.9,20.9
	C89.7,110.7,89.7,110.8,89.6,110.8z M95,124c-0.2,0.1-0.2,0.1-0.3,0.1c-1.5,0.5-3.1-0.2-3.7-1.7l-1-2.7c-0.5-1.4,0.1-2.9,1.4-3.6
	c24.8-11.1,35.8-40.1,24.8-64.9c-4.9-11-13.7-19.8-24.8-24.8c-1.3-0.6-2-2.2-1.4-3.6l1-2.7V20c0.7-1.4,2.4-2,3.8-1.3l0,0
	c13,5.9,23.4,16.2,29.3,29.2C137.1,77,124,111,95,124z"/>
<radialGradient id="SVGID_2_" cx="71.4" cy="70.4898" r="68" gradientTransform="matrix(1 0 0 -1 0 141.8898)" gradientUnits="userSpaceOnUse">
	<stop  offset="0" style="stop-color:#000000"/>
	<stop  offset="1" style="stop-color:#000000;stop-opacity:0"/>
</radialGradient>
<path class="st2" d="M21.8,139.4c-10.2,0-18.4-8.3-18.4-18.4V21.8c0-10.2,8.3-18.4,18.4-18.4H121c10.2,0,18.4,8.3,18.4,18.4V121
	c0,10.2-8.3,18.4-18.4,18.4H21.8z M56.7,100.4c-2.3,0-4.5,1.4-5.4,3.5l-6.4,16.2v0.1c-0.8,2.8,0.6,5.9,3.3,7.1l0.2,0.1l2.8,1h0.1
	c0.5,0.2,1.1,0.2,1.7,0.2c2.3,0,4.5-1.4,5.4-3.5l0.1-0.1l6.1-15.9c1.1-2.9-0.3-6.1-3.1-7.3l-0.1-0.1l-2.8-1h-0.1
	C57.8,100.5,57.3,100.4,56.7,100.4z M87.3,22c-1.1,2.7,0.2,5.9,2.9,7.1c10.4,4.7,18.7,13,23.4,23.3c10.4,23.3,0,50.7-23.3,61.1
	l-0.1,0.1c-2.6,1.3-3.8,4.3-2.8,7l1,2.7c0.8,2.2,3,3.7,5.4,3.7c0.5,0,1.1-0.1,1.6-0.2s0.9-0.3,1.2-0.5
	c30.2-13.7,43.8-49.4,30.3-79.7C120.7,33,109.8,22.2,96.2,16c-0.8-0.4-1.6-0.6-2.5-0.6c-2.2,0-4.1,1.2-5.1,3.2l-0.3,0.6v0.4L87.3,22
	z M82.2,35.2c-1.1,2.7,0.2,5.9,2.9,7.1C101,49.9,107.9,69,100.4,85c-3.1,6.7-8.6,12.2-15.3,15.3c-2.7,1.3-3.9,4.4-2.9,7.1l1,2.8v0.1
	c1,2.1,3.1,3.5,5.4,3.5c0.5,0,1-0.1,1.5-0.2s0.9-0.3,1.3-0.6c9.6-4.6,17.3-12.4,21.8-22C124,67.8,114,40.3,90.9,29.5
	c-0.7-0.4-1.6-0.6-2.5-0.6c-2.2,0-4.1,1.2-5.1,3.2L83,32.7V33L82.2,35.2z M22.4,106.8c1,1.5,2.8,2.5,4.7,2.5c1.1,0,2.2-0.3,3.2-1
	l14.2-9.8c2.4-1.8,3.1-5.3,1.4-7.9l-1.6-2.4c-1.1-1.5-2.9-2.4-4.7-2.4c-1.1,0-2.3,0.3-3.2,1l-14.1,9.7c-2.6,1.9-3.2,5.3-1.4,7.9
	l1.5,2.2C22.3,106.7,22.4,106.7,22.4,106.8z M71.4,40.1c-17.3,0-31.3,14-31.3,31.3c0,17.2,14.1,31.2,31.3,31.3
	c17.3,0,31.3-14,31.3-31.3S88.6,40.1,71.4,40.1z M16.6,64.3c-3.1,0-5.6,2.6-5.7,5.7v2.9c0,3.1,2.6,5.7,5.7,5.7h17.1
	c3.1,0,5.7-2.6,5.7-5.7V70c0-3.1-2.5-5.7-5.7-5.7H16.6L16.6,64.3z M27.1,33.6c-1.8,0-3.6,0.9-4.7,2.4l-1.6,2.3
	c-1.7,2.6-1.1,6.1,1.4,7.9l14.1,9.7c1,0.7,2.1,1,3.2,1c1.8,0,3.6-0.9,4.7-2.4l1.6-2.3c1.8-2.6,1.1-6.1-1.4-7.9l-14.1-9.7
	C29.3,33.9,28.2,33.6,27.1,33.6z M51.3,38.7c0.8,2.2,3,3.6,5.3,3.6c0.7,0,1.4-0.1,2-0.4l2.8-1c2.9-1.1,4.4-4.4,3.3-7.3l-6.2-16
	c-0.8-2.1-3-3.6-5.3-3.6c-0.7,0-1.4,0.1-2,0.4l-2.8,1c-1.4,0.5-2.5,1.6-3.2,3c-0.6,1.4-0.7,2.9-0.2,4.3l6.2,15.9L51.3,38.7z
	 M71.4,89.9c-10.2,0-18.5-8.3-18.5-18.5s8.3-18.5,18.5-18.5c5,0,9.6,1.9,13.1,5.4s5.4,8.1,5.4,13.1C89.9,81.6,81.6,89.9,71.4,89.9
	L71.4,89.9z M71.3,54.3c-9.4,0-17.1,7.7-17.1,17.1s7.7,17.1,17.1,17.1s17-7.7,17.1-17.1C88.4,61.9,80.8,54.3,71.3,54.3L71.3,54.3z"
	/>
</svg>
