<?xml version="1.0" encoding="utf-8"?>
<!-- Generator: Adobe Illustrator 25.2.0, SVG Export Plug-In . SVG Version: 6.00 Build 0)  -->
<svg version="1.1" id="Layer_1" xmlns="http://www.w3.org/2000/svg" xmlns:xlink="http://www.w3.org/1999/xlink" x="0px" y="0px"
	 viewBox="0 0 1406.1 665.3" style="enable-background:new 0 0 1406.1 665.3;" xml:space="preserve">
<style type="text/css">
	.st0{fill:#FFFFFF;}
</style>
<path id="_x31_" class="st0" d="M318.7,621.2c30.7-1.9,64.1-3.6,99.6-5v15.9c-131.9,1.6-213.3,4-253.1,5.4
	C186.8,632.9,230.4,626.8,318.7,621.2z"/>
<path id="_x32_" class="st0" d="M440.3,615.4c77.5-2.7,163.9-4.3,253.1-4.4v19.5c-98.6,0-182.5,0.5-253.1,1.3V615.4z"/>
<path id="_x33_" class="st0" d="M715.4,611.1c89.3,0.1,175.7,1.7,253.1,4.4v16.4c-70.5-0.8-154.4-1.3-253.1-1.3V611.1z"/>
<path id="_x34_" class="st0" d="M1241,637.5c-39.5-1.4-120.2-3.8-250.5-5.4v-15.8c34.6,1.4,67.1,3,97.1,4.9
	C1175.8,626.8,1219.4,632.9,1241,637.5z"/>
</svg>
