<?xml version="1.0" encoding="utf-8"?>
<!-- Generator: Adobe Illustrator 25.2.0, SVG Export Plug-In . SVG Version: 6.00 Build 0)  -->
<svg version="1.1" id="Layer_1" xmlns="http://www.w3.org/2000/svg" xmlns:xlink="http://www.w3.org/1999/xlink" x="0px" y="0px"
	 viewBox="0 0 1406.1 665.3" style="enable-background:new 0 0 1406.1 665.3;" xml:space="preserve">
<style type="text/css">
	.st0{fill:none;stroke:#FFFFFF;stroke-miterlimit:10;}
	.st1{fill:url(#SVGID_1_);}
</style>
<path class="st0" d="M703.1,646.5c443,0,618.7,18.3,618.7,18.3s86.6-64.8,83.7-64.8c-3.4-8.7,0.6-169.1,0-173.5l-28.6-27.4V238.8
	l28.6-27.4V42.8l-65.1-42.3L890,11.3L783.6,77.8H622.5L516.1,11.3L65.7,0.5L0.6,42.9v168.6l28.6,27.3v160.3L0.6,426.5
	c-0.7,3.3,3.4,165.7,0,173.5c-2.9,0,83.8,64.8,83.8,64.8S260,646.5,703.1,646.5z"/>
<linearGradient id="SVGID_1_" gradientUnits="userSpaceOnUse" x1="0.5" y1="332.6536" x2="1405.6085" y2="332.6536">
	<stop  offset="0" style="stop-color:#000000;stop-opacity:0"/>
	<stop  offset="0.5" style="stop-color:#000000;stop-opacity:0.1"/>
	<stop  offset="1" style="stop-color:#000000;stop-opacity:0"/>
</linearGradient>
<path class="st1" d="M703.1,646.5c443,0,618.7,18.3,618.7,18.3s86.6-64.8,83.7-64.8c-3.4-8.7,0.6-169.1,0-173.5l-28.6-27.4V238.8
	l28.6-27.4V42.8l-65.1-42.3L890,11.3L783.6,77.8H622.5L516.1,11.3L65.7,0.5L0.6,42.9v168.6l28.6,27.3v160.3L0.6,426.5
	c-0.7,3.3,3.4,165.7,0,173.5c-2.9,0,83.8,64.8,83.8,64.8S260,646.5,703.1,646.5z"/>
</svg>
