<?xml version="1.0" encoding="utf-8"?>
<!-- Generator: Adobe Illustrator 25.2.0, SVG Export Plug-In . SVG Version: 6.00 Build 0)  -->
<svg version="1.1" id="Layer_1" xmlns="http://www.w3.org/2000/svg" xmlns:xlink="http://www.w3.org/1999/xlink" x="0px" y="0px"
	 viewBox="0 0 1411.5 667.9" style="enable-background:new 0 0 1411.5 667.9;" xml:space="preserve">
<style type="text/css">
	.st0{fill:#FFFFFF;}
	.st1{fill:url(#SVGID_1_);}
</style>
<g>
	<polygon class="st0" points="1343.1,0 1230.5,3.2 1117.9,6.2 1005.3,9.2 892.7,12.1 893.3,11.9 787,78.4 786.7,78.7 786.3,78.7 
		625.2,78.7 624.8,78.7 624.5,78.4 518.1,11.9 518.8,12.1 406.2,9.2 293.6,6.2 181,3.2 68.4,0 181,2.2 293.6,4.6 406.2,7 518.8,9.5 
		519.2,9.6 519.4,9.7 625.9,76.2 625.2,75.9 786.3,75.9 785.6,76.2 892,9.7 892.3,9.6 892.7,9.5 1005.3,7 1117.9,4.6 1230.5,2.2 	
		"/>
</g>
<g>
	<path class="st0" d="M68.4,0l-65,42.5l0.1-0.1L3.8,211l-0.2-0.4l28.7,27.2l0.2,0.2l0,0.2l0.2,160.3l0,0.3l-0.3,0.2L3.9,426.6
		l0.2-0.4l0,0.5l0,0.7l0,1.3l0,2.7l0,5.4l0.1,10.8l0.3,21.7l0.7,43.4c0.2,14.5,0.3,28.9,0.4,43.4c0,7.2,0,14.5-0.1,21.7
		c0,3.6-0.1,7.2-0.2,10.9c-0.1,1.8-0.1,3.6-0.3,5.5C5,595.1,4.9,596,4.8,597c0,0.5-0.1,0.9-0.2,1.4c-0.1,0.5-0.2,1-0.4,1.6l-1,0.6
		c0.2,0,0.4-0.1,0.5-0.2c0.1-0.1,0.3-0.2,0.4-0.4c0.1-0.2,0.1-0.4,0.1-0.4c0-0.1,0-0.3-0.1-0.3c0,0,0,0,0-0.1c0-0.1,0,0,0,0
		c0,0,0,0,0,0c0.1,0.1,0.1,0.2,0.2,0.2c0.2,0.2,0.4,0.4,0.6,0.5c0.4,0.4,0.8,0.7,1.2,1.1c0.8,0.7,1.7,1.4,2.5,2.1
		c1.7,1.4,3.4,2.8,5.2,4.1c3.5,2.7,7,5.4,10.5,8.1c7,5.4,14,10.8,21.1,16.1c14.1,10.7,28.2,21.3,42.4,31.9l-0.8-0.2
		c12.9-1.3,25.7-2.3,38.6-3.2c12.9-0.9,25.7-1.7,38.6-2.5c25.8-1.5,51.5-2.9,77.3-4c51.6-2.3,103.1-4,154.7-5.2
		c103.2-2.6,206.4-3.6,309.6-3.6c103.2,0,206.4,1,309.6,3.6c51.6,1.2,103.2,2.9,154.7,5.2c25.8,1.1,51.5,2.5,77.3,4
		c12.9,0.8,25.8,1.6,38.6,2.5c12.9,0.9,25.7,1.9,38.6,3.2l-0.8,0.2c14.2-10.6,28.3-21.2,42.3-31.9c7-5.3,14.1-10.7,21-16.1
		c3.5-2.7,7-5.4,10.4-8.1c1.7-1.4,3.5-2.7,5.2-4.1c0.9-0.7,1.7-1.4,2.5-2.1c0.4-0.4,0.8-0.7,1.2-1.1c0.2-0.2,0.4-0.4,0.6-0.5
		c0.1-0.1,0.2-0.2,0.2-0.2c0,0,0,0,0,0c0,0,0,0,0,0c0,0,0,0,0,0.1c0,0.1-0.1,0.2-0.1,0.3c0,0,0,0.2,0.1,0.4c0.1,0.2,0.3,0.4,0.4,0.4
		c0.1,0.1,0.3,0.2,0.5,0.2l-1-0.7c-0.1-0.5-0.3-1-0.4-1.5l-0.2-1.4c-0.1-0.9-0.2-1.8-0.2-2.7c-0.1-1.8-0.2-3.6-0.3-5.5
		c-0.1-3.6-0.2-7.2-0.3-10.9c-0.1-7.2-0.1-14.5-0.1-21.7c0-14.5,0.2-28.9,0.4-43.4l0.7-43.4l0.4-21.7l0.2-10.8l0.1-5.4l0-2.7
		c0-0.9,0-1.8-0.1-2.6l0.3,0.5l-28.6-27.4l-0.3-0.2l0-0.3l0.2-160.3l0-0.2l0.2-0.2l28.7-27.3l-0.2,0.4l0.3-168.6l0.1,0.1l-65-42.4
		l65.2,42.2l0.1,0l0,0.1l0.3,168.6l0,0.2l-0.2,0.1l-28.5,27.5l0.2-0.4l0.2,160.3l-0.3-0.6l28.6,27.4l0.2,0.2l0,0.3
		c0.1,1,0.1,1.9,0.1,2.8l0,2.7l0,5.4l-0.1,10.9l-0.3,21.7l-0.6,43.4c-0.2,14.5-0.3,28.9-0.3,43.4c0,7.2,0,14.5,0.2,21.7
		c0.1,3.6,0.1,7.2,0.3,10.8c0.1,1.8,0.2,3.6,0.3,5.4c0.1,0.9,0.1,1.8,0.2,2.7l0.2,1.3l0.2,1.1l-1-0.7c0.2,0,0.4,0.1,0.6,0.2
		c0.1,0.1,0.3,0.3,0.4,0.5c0.1,0.2,0.1,0.4,0.1,0.5c0,0.1,0,0.3-0.1,0.4l-0.1,0.1c-0.1,0.1-0.1,0.1-0.1,0.2l-0.1,0.1
		c-0.1,0.2-0.2,0.3-0.3,0.4c-0.2,0.2-0.4,0.4-0.6,0.6c-0.4,0.4-0.8,0.8-1.3,1.1c-0.8,0.7-1.7,1.4-2.6,2.1c-1.7,1.4-3.4,2.8-5.2,4.2
		c-3.5,2.8-6.9,5.5-10.4,8.2c-7,5.4-14,10.8-21,16.2c-14.1,10.7-28.2,21.4-42.3,32l-0.4,0.3l-0.5,0c-12.8-1.2-25.7-2.2-38.5-3.1
		c-12.9-0.9-25.7-1.7-38.6-2.5c-25.7-1.5-51.5-2.8-77.3-3.9c-51.5-2.3-103.1-3.9-154.7-5.1c-103.1-2.5-206.3-3.4-309.5-3.4
		c-103.2,0-206.4,0.9-309.5,3.4c-51.6,1.2-103.1,2.9-154.7,5.1c-25.8,1.1-51.5,2.4-77.3,3.9c-12.9,0.8-25.7,1.6-38.6,2.5
		c-12.9,0.9-25.7,1.9-38.5,3.1l-0.5,0l-0.4-0.3c-14.1-10.6-28.3-21.3-42.3-32c-7-5.4-14.1-10.7-21.1-16.2c-3.5-2.7-7-5.4-10.5-8.2
		c-1.7-1.4-3.5-2.8-5.2-4.2c-0.9-0.7-1.7-1.4-2.6-2.1c-0.4-0.4-0.8-0.7-1.3-1.1c-0.2-0.2-0.4-0.4-0.6-0.6c-0.1-0.1-0.2-0.2-0.3-0.4
		l-0.1-0.1c0-0.1-0.1-0.1-0.1-0.2L2.3,600c0-0.1-0.1-0.3-0.1-0.4c0,0,0-0.2,0.1-0.5c0.1-0.2,0.3-0.4,0.4-0.5
		c0.2-0.1,0.4-0.2,0.6-0.2l-1,0.6c0.1-0.2,0.2-0.7,0.2-1.1c0.1-0.4,0.1-0.8,0.2-1.3c0.1-0.9,0.2-1.8,0.2-2.7
		c0.1-1.8,0.2-3.6,0.3-5.4c0.1-3.6,0.2-7.2,0.3-10.8c0.1-7.2,0.1-14.5,0.1-21.7c0-14.5-0.1-28.9-0.3-43.4l-0.6-43.4l-0.3-21.7
		l-0.1-10.9l0-5.4l0-2.7l0-1.4l0-0.7c0-0.2,0-0.5,0.1-0.8l0-0.2l0.2-0.2L31.3,398l-0.2,0.6l0.2-160.3l0.2,0.4L2.9,211.4l-0.2-0.1
		l0-0.2L3.1,42.4l0-0.1l0.1,0L68.4,0z"/>
</g>
<linearGradient id="SVGID_1_" gradientUnits="userSpaceOnUse" x1="3.2005" y1="332.7398" x2="1408.2539" y2="332.7398" gradientTransform="matrix(1 0 0 -1 0 664.8898)">
	<stop  offset="0" style="stop-color:#000000;stop-opacity:0"/>
	<stop  offset="0.5" style="stop-color:#000000;stop-opacity:0.1"/>
	<stop  offset="1" style="stop-color:#000000;stop-opacity:0"/>
</linearGradient>
<path class="st1" d="M705.8,646c443,0,618.7,18.3,618.7,18.3s86.6-64.8,83.7-64.8c-3.4-8.7,0.6-169.1,0-173.5l-28.6-27.4V238.3
	l28.6-27.4V42.3L1343.1,0L892.7,10.8L786.3,77.3H625.2L518.8,10.8L68.4,0L3.3,42.4V211l28.6,27.3v160.3L3.3,426
	c-0.7,3.3,3.4,165.7,0,173.5c-2.9,0,83.8,64.8,83.8,64.8S262.7,646,705.8,646z"/>
</svg>
