<svg id="Layer_1" data-name="Layer 1" xmlns="http://www.w3.org/2000/svg" viewBox="0 0 552.12 141.73"><defs><style>.cls-1{fill:#f69320;}.cls-2{fill:#f59222;}</style></defs><path class="cls-1" d="M205.61,63.26c-11.06-4-15.89-6.33-15.89-11.57,0-4.26,4.07-7.91,12.46-7.91a42.25,42.25,0,0,1,17.93,3.9l4.32-15a54.48,54.48,0,0,0-21.87-4.14c-20.22,0-32.43,10.71-32.43,24.71,0,11.92,9.29,19.47,23.53,24.22C204,81,208,84,208,89.06c0,5.35-4.71,8.88-13.61,8.88a51.16,51.16,0,0,1-21.49-5.11L169,108.17c4.83,2.55,14.49,5,24.29,5,23.52,0,34.59-11.69,34.59-25.44C227.87,76.16,220.75,68.61,205.61,63.26Z"/><rect class="cls-1" x="411.14" y="96.24" width="56.39" height="16.92"/><rect class="cls-1" x="411.14" y="62.41" width="56.39" height="16.92"/><rect class="cls-1" x="411.14" y="28.57" width="56.39" height="16.92"/><polygon class="cls-1" points="481.63 28.57 481.63 45.49 506.26 45.49 506.26 113.16 527.08 113.16 527.08 113.16 527.45 113.16 527.45 45.49 552.12 45.49 552.12 28.57 481.63 28.57"/><polygon class="cls-1" points="397.04 28.57 380.13 28.57 380.13 86.92 349.04 28.57 326.93 28.57 326.93 113.16 326.93 113.16 326.93 113.16 343.84 113.16 343.86 113.16 343.86 50.66 376.83 113.16 397.05 113.16 397.05 28.57 397.04 28.57 397.04 28.57"/><path class="cls-1" d="M292.14,28.57V78.8a27.48,27.48,0,0,1-.28,4c-1.47,9.88-6.65,15-14.8,15.22-8.15-.24-13.33-5.34-14.8-15.22a27.48,27.48,0,0,1-.28-4V28.57H242V75a57,57,0,0,0,2.11,16.32c4.51,15,16.06,21.83,32.93,21.83h.12c16.87,0,28.42-6.78,32.93-21.83A57,57,0,0,0,312.16,75V28.57Z"/><path class="cls-2" d="M70.87,49.52A21.35,21.35,0,1,0,92.21,70.86,21.31,21.31,0,0,0,70.87,49.52Zm0,35.57A14.23,14.23,0,1,1,85.09,70.86,14.27,14.27,0,0,1,70.87,85.09ZM120.46,0H21.26A21.26,21.26,0,0,0,0,21.27v99.21a21.25,21.25,0,0,0,21.26,21.25h99.2a21.26,21.26,0,0,0,21.27-21.25V21.27A21.27,21.27,0,0,0,120.46,0ZM49,17.5l2.71-1a2.84,2.84,0,0,1,3.7,1.7l6.11,15.94a2.84,2.84,0,0,1-1.7,3.7l-2.71,1a2.85,2.85,0,0,1-3.7-1.71L47.24,21.2A2.85,2.85,0,0,1,49,17.5ZM22.63,39.42l1.56-2.28a2.92,2.92,0,0,1,4-.71L42.26,46.1a2.92,2.92,0,0,1,.72,4l-1.57,2.27a2.93,2.93,0,0,1-4,.72L23.34,43.4A2.91,2.91,0,0,1,22.63,39.42ZM16.08,75.13a2.85,2.85,0,0,1-2.84-2.84V69.44a2.85,2.85,0,0,1,2.84-2.85H33.16A2.85,2.85,0,0,1,36,69.44v2.85a2.85,2.85,0,0,1-2.84,2.84ZM42.26,95.76l-14.08,9.68a2.84,2.84,0,0,1-4-.85l-1.56-2.28a2.91,2.91,0,0,1,.71-4l14.09-9.68a2.92,2.92,0,0,1,4,.71L43,91.64A3.08,3.08,0,0,1,42.26,95.76Zm19.07,11.81-6.12,15.94a3.1,3.1,0,0,1-3.7,1.71l-2.7-1a3.11,3.11,0,0,1-1.71-3.7l6.26-15.93a3.09,3.09,0,0,1,3.7-1.71l2.71,1A2.89,2.89,0,0,1,61.33,107.57ZM42.41,70.86A28.46,28.46,0,1,1,70.87,99.32,28.54,28.54,0,0,1,42.41,70.86Zm46.67,39.42a3.11,3.11,0,0,1-3.7-1.71l-1-2.7a2.84,2.84,0,0,1,1.43-3.56,34.44,34.44,0,0,0,16.64-16.65A34.88,34.88,0,0,0,85.81,39.27a2.78,2.78,0,0,1-1.43-3.55l1-2.71v-.14a2.85,2.85,0,0,1,3.84-1.28,43.35,43.35,0,0,1,0,78.55A.14.14,0,0,1,89.08,110.28Zm5.41,13.23c-.15.14-.15.14-.29.14a2.9,2.9,0,0,1-3.7-1.7l-1-2.71a2.89,2.89,0,0,1,1.42-3.55,49.11,49.11,0,0,0,0-89.65,2.78,2.78,0,0,1-1.42-3.56l1-2.7V19.5a2.85,2.85,0,0,1,3.84-1.29,59.17,59.17,0,0,1,29.32,29.17A57.73,57.73,0,0,1,94.49,123.51Z"/></svg>