<?xml version="1.0" encoding="utf-8"?>
<!-- Generator: Adobe Illustrator 25.2.0, SVG Export Plug-In . SVG Version: 6.00 Build 0)  -->
<svg version="1.1" id="Layer_1" xmlns="http://www.w3.org/2000/svg" xmlns:xlink="http://www.w3.org/1999/xlink" x="0px" y="0px"
	 viewBox="0 0 57.8 54.6" style="enable-background:new 0 0 57.8 54.6;" xml:space="preserve">
<style type="text/css">
	.st0{fill:#F6921E;}
</style>
<g>
	<g>
		<path class="st0" d="M17.9,0.6l1.4-0.5C20-0.2,20.9,0.2,21.1,1l3.1,8c0.3,0.7-0.1,1.6-0.9,1.8l-1.4,0.5c-0.7,0.3-1.6-0.1-1.8-0.9
			l-3.1-8C16.7,1.7,17.1,0.8,17.9,0.6z M4.7,11.5l0.8-1.1c0.4-0.6,1.4-0.8,2-0.4l7,4.8c0.6,0.4,0.8,1.4,0.4,2l-0.8,1.1
			c-0.5,0.6-1.4,0.8-2,0.4l-7-4.8C4.4,13.1,4.3,12.1,4.7,11.5z M1.4,29.4C0.6,29.4,0,28.8,0,28v-1.4c0-0.8,0.6-1.4,1.4-1.4h8.5
			c0.8,0,1.4,0.6,1.4,1.4V28c0,0.8-0.6,1.4-1.4,1.4H1.4z M14.5,39.7l-7,4.8c-0.6,0.4-1.6,0.3-2-0.4L4.7,43c-0.4-0.6-0.3-1.6,0.4-2
			l7-4.8c0.6-0.4,1.6-0.3,2,0.4l0.8,1.1C15.3,38.3,15.2,39.2,14.5,39.7z M24.1,45.6l-3.1,8c-0.3,0.7-1.1,1.1-1.8,0.9L17.8,54
			c-0.7-0.3-1.1-1.1-0.9-1.8l3.1-8c0.3-0.7,1.1-1.1,1.8-0.9l1.4,0.5C24,44,24.4,44.9,24.1,45.6z M14.6,27.2C14.6,19.4,21,13,28.8,13
			S43,19.4,43,27.2s-6.4,14.2-14.2,14.2C21,41.5,14.6,35.1,14.6,27.2z M37.9,46.9c-0.7,0.2-1.6-0.1-1.8-0.9l-0.5-1.4
			c-0.3-0.7,0.1-1.4,0.7-1.8c3.6-1.7,6.6-4.6,8.3-8.3c4.1-8.7,0.4-19.1-8.3-23.2c-0.6-0.3-1-1.1-0.7-1.8l0.5-1.4V8
			c0.4-0.7,1.2-1,1.9-0.6c4.6,2.1,8.3,5.8,10.5,10.5C53.6,28.9,48.9,41.8,37.9,46.9C38,46.9,37.9,46.9,37.9,46.9z M40.6,53.6
			C40.5,53.7,40.5,53.7,40.6,53.6c-0.9,0.4-1.7,0-1.9-0.8l-0.5-1.4c-0.3-0.6,0.1-1.4,0.7-1.8c5.5-2.4,9.9-6.8,12.4-12.4
			c5.5-12.4-0.1-26.9-12.4-32.4c-0.6-0.3-1-1.1-0.7-1.8l0.5-1.4c0-0.1,0-0.1,0-0.1c0.4-0.7,1.2-1,1.9-0.6C47.1,3.8,52.3,9,55.3,15.5
			C61.7,30,55.2,47.1,40.6,53.6z M28.8,16.6c-5.9,0-10.7,4.8-10.7,10.7S22.9,38,28.8,38s10.7-4.8,10.7-10.7S34.7,16.6,28.8,16.6z
			 M28.8,34.3c-3.9,0-7.1-3.2-7.1-7.1s3.2-7.1,7.1-7.1s7.1,3.2,7.1,7.1S32.7,34.3,28.8,34.3z"/>
	</g>
</g>
</svg>
