<svg id="Layer_1" data-name="Layer 1" xmlns="http://www.w3.org/2000/svg" viewBox="0 0 385.16 85.04"><defs><style>.cls-1{fill:#f7941d;}</style></defs><path class="cls-1" d="M36.82,34.87c-11.12-4-16-6.36-16-11.62,0-4.29,4.09-8,12.53-8a42.41,42.41,0,0,1,18,3.92l4.35-15A54.84,54.84,0,0,0,33.75,0C13.42,0,1.15,10.77,1.15,24.84c0,12,9.33,19.57,23.65,24.35,10.36,3.54,14.45,6.48,14.45,11.62,0,5.38-4.73,8.93-13.68,8.93A51.5,51.5,0,0,1,4,64.6L0,80c4.86,2.57,14.57,5,24.42,5,23.65,0,34.77-11.74,34.77-25.57C59.19,47.84,52,40.25,36.82,34.87Z"/><rect class="cls-1" x="243.43" y="68.03" width="56.69" height="17.01"/><rect class="cls-1" x="243.43" y="34.01" width="56.69" height="17.01"/><rect class="cls-1" x="243.43" width="56.69" height="17.01"/><polygon class="cls-1" points="314.3 0 314.3 17.01 339.06 17.01 339.06 85.03 359.99 85.03 359.99 85.03 360.36 85.03 360.36 17.01 385.16 17.01 385.16 0 314.3 0"/><polygon class="cls-1" points="229.26 0 212.25 0 212.25 58.66 181.01 0 158.78 0 158.78 85.03 158.78 85.03 158.78 85.04 175.78 85.04 175.8 85.04 175.8 22.2 208.94 85.04 229.26 85.04 229.26 0 229.26 0 229.26 0"/><path class="cls-1" d="M123.81,0V50.49a27.79,27.79,0,0,1-.28,4.08c-1.49,9.93-6.7,15.06-14.89,15.3-8.19-.24-13.4-5.37-14.88-15.3a27.79,27.79,0,0,1-.28-4.08V0H73.36V46.68a57.19,57.19,0,0,0,2.12,16.41C80,78.22,91.63,85,108.58,85h.13c17,0,28.56-6.82,33.1-22a57.19,57.19,0,0,0,2.12-16.41V0Z"/></svg>