<svg id="Layer_1" data-name="Layer 1" xmlns="http://www.w3.org/2000/svg" viewBox="0 0 320.04 252.73"><defs><style>.cls-1,.cls-2{fill:#f7941d;}.cls-2{font-size:24px;font-family:MyriadPro-SemiboldIt, Myriad Pro;font-weight:600;font-style:italic;}.cls-3{letter-spacing:-0.03em;}.cls-4{letter-spacing:-0.03em;}.cls-5{letter-spacing:0.01em;}.cls-6{letter-spacing:-0.01em;}.cls-7{letter-spacing:-0.03em;}.cls-8{letter-spacing:0em;}.cls-9{letter-spacing:0.01em;}</style></defs><path class="cls-1" d="M159.76,49.52a21.35,21.35,0,1,0,21.35,21.34A21.31,21.31,0,0,0,159.76,49.52Zm0,35.57A14.23,14.23,0,1,1,174,70.86,14.27,14.27,0,0,1,159.76,85.09ZM209.36,0H110.15A21.26,21.26,0,0,0,88.9,21.27v99.21a21.24,21.24,0,0,0,21.25,21.25h99.21a21.26,21.26,0,0,0,21.27-21.25V21.27A21.27,21.27,0,0,0,209.36,0ZM137.85,17.5l2.7-1a2.83,2.83,0,0,1,3.7,1.7l6.12,15.94a2.84,2.84,0,0,1-1.7,3.7l-2.71,1a2.84,2.84,0,0,1-3.7-1.71L136.14,21.2A2.85,2.85,0,0,1,137.85,17.5ZM111.53,39.42l1.56-2.28a2.92,2.92,0,0,1,4-.71l14.08,9.67a2.93,2.93,0,0,1,.72,4l-1.57,2.27a2.93,2.93,0,0,1-4,.72L112.24,43.4A2.91,2.91,0,0,1,111.53,39.42ZM105,75.13a2.85,2.85,0,0,1-2.84-2.84V69.44A2.86,2.86,0,0,1,105,66.59h17.08a2.86,2.86,0,0,1,2.84,2.85v2.85a2.85,2.85,0,0,1-2.84,2.84Zm26.18,20.63-14.08,9.68a2.84,2.84,0,0,1-4-.85l-1.56-2.28a2.91,2.91,0,0,1,.71-4l14.09-9.68a2.92,2.92,0,0,1,4,.71l1.57,2.28A3.09,3.09,0,0,1,131.16,95.76Zm19.07,11.81-6.12,15.94a3.1,3.1,0,0,1-3.7,1.71l-2.7-1a3.1,3.1,0,0,1-1.71-3.7l6.26-15.93a3.09,3.09,0,0,1,3.7-1.71l2.71,1A2.89,2.89,0,0,1,150.23,107.57ZM131.31,70.86a28.46,28.46,0,1,1,28.45,28.46A28.54,28.54,0,0,1,131.31,70.86ZM178,110.28a3.11,3.11,0,0,1-3.7-1.71l-1-2.7a2.83,2.83,0,0,1,1.43-3.56,34.44,34.44,0,0,0,16.64-16.65,34.89,34.89,0,0,0-16.64-46.39,2.77,2.77,0,0,1-1.43-3.55l1-2.71v-.14a2.85,2.85,0,0,1,3.84-1.28,43.35,43.35,0,0,1,0,78.55A.14.14,0,0,1,178,110.28Zm5.4,13.23c-.14.14-.14.14-.28.14a2.9,2.9,0,0,1-3.7-1.7l-1-2.71a2.9,2.9,0,0,1,1.43-3.55,49.11,49.11,0,0,0,0-89.65,2.8,2.8,0,0,1-1.43-3.56l1-2.7V19.5a2.85,2.85,0,0,1,3.84-1.29,59.12,59.12,0,0,1,29.31,29.17A57.71,57.71,0,0,1,183.38,123.51Z"/><path class="cls-1" d="M56.6,179.1C49.23,176.41,46,174.86,46,171.36c0-2.86,2.71-5.31,8.3-5.31a28,28,0,0,1,11.94,2.61l2.88-10a36.11,36.11,0,0,0-14.57-2.77C41.1,155.86,33,163,33,172.42c0,8,6.18,13.05,15.67,16.23C55.49,191,58.2,193,58.2,196.4c0,3.59-3.13,5.95-9.06,5.95a33.83,33.83,0,0,1-14.31-3.43L32.21,209.2c3.22,1.72,9.65,3.35,16.17,3.35,15.67,0,23-7.83,23-17.05C71.41,187.75,66.67,182.69,56.6,179.1Z"/><rect class="cls-1" x="193.45" y="201.21" width="37.55" height="11.34"/><rect class="cls-1" x="193.45" y="178.53" width="37.55" height="11.34"/><rect class="cls-1" x="193.45" y="155.86" width="37.55" height="11.34"/><polygon class="cls-1" points="240.39 155.86 240.39 167.2 256.79 167.2 256.79 212.55 270.65 212.55 270.65 212.55 270.89 212.55 270.89 167.2 287.32 167.2 287.32 155.86 240.39 155.86"/><polygon class="cls-1" points="184.06 155.86 172.8 155.86 172.8 194.96 152.1 155.86 137.37 155.86 137.37 212.55 137.38 212.55 137.38 212.55 148.64 212.55 148.65 212.55 148.65 170.66 170.6 212.55 184.06 212.55 184.06 155.86 184.06 155.86 184.06 155.86"/><path class="cls-1" d="M114.21,155.86v33.66a19,19,0,0,1-.18,2.72c-1,6.62-4.44,10-9.86,10.2-5.42-.16-8.88-3.58-9.86-10.2a19,19,0,0,1-.18-2.72V155.86H80.8V187a38.67,38.67,0,0,0,1.4,10.94c3,10.08,10.7,14.63,21.93,14.63h.08c11.23,0,18.92-4.55,21.93-14.63a38.67,38.67,0,0,0,1.4-10.94V155.86Z"/><text class="cls-2" transform="translate(0 246.73)"><tspan class="cls-3">W</tspan><tspan x="19.54" y="0">eSun, </tspan><tspan class="cls-4" x="79.17" y="0">W</tspan><tspan x="98.71" y="0">e</tspan><tspan class="cls-5" x="110.21" y="0">R</tspan><tspan x="123.72" y="0">is</tspan><tspan class="cls-6" x="139.22" y="0">e</tspan><tspan x="150.45" y="0">, </tspan><tspan class="cls-7" x="160.56" y="0">W</tspan><tspan x="180.09" y="0">eShin</tspan><tspan class="cls-6" x="235.72" y="0">e</tspan><tspan x="246.96" y="0">, </tspan><tspan class="cls-7" x="257.06" y="0">W</tspan><tspan class="cls-8" x="276.6" y="0">e</tspan><tspan class="cls-9" x="288.09" y="0">S</tspan><tspan class="cls-8" x="300.04" y="0">et</tspan></text></svg>